<svg width="48" height="48" viewBox="0 0 48 48" fill="none" xmlns="http://www.w3.org/2000/svg">
<g clip-path="url(#clip0_131_3388)">
<rect x="0.5" y="0.5" width="47" height="47" rx="7.5" fill="#B6ABDF" stroke="#6B5D9E"/>
<path d="M34.2572 32.764C33.7125 32.8555 33.3451 33.3712 33.4366 33.9158C33.5281 34.4605 34.0438 34.8279 34.5885 34.7364L34.2572 32.764ZM32.3587 23.6374C31.8064 23.6374 31.3587 24.0852 31.3587 24.6374C31.3587 25.1897 31.8064 25.6374 32.3587 25.6374V23.6374ZM30.8206 20.4712C32.9124 20.4712 34.6076 18.7751 34.6076 16.6835H32.6076C32.6076 17.6711 31.8073 18.4712 30.8206 18.4712V20.4712ZM27.0336 16.6835C27.0336 18.7751 28.7289 20.4712 30.8206 20.4712V18.4712C29.834 18.4712 29.0336 17.6711 29.0336 16.6835H27.0336ZM30.8206 12.8957C28.7289 12.8957 27.0336 14.5918 27.0336 16.6835H29.0336C29.0336 15.6959 29.834 14.8957 30.8206 14.8957V12.8957ZM34.6076 16.6835C34.6076 14.5918 32.9124 12.8957 30.8206 12.8957V14.8957C31.8073 14.8957 32.6076 15.6959 32.6076 16.6835H34.6076ZM38 29.2736C38 30.1142 37.7293 30.8449 37.176 31.4254C36.6138 32.0153 35.6878 32.5237 34.2572 32.764L34.5885 34.7364C36.327 34.4443 37.6897 33.7852 38.6237 32.8054C39.5667 31.8161 40 30.5748 40 29.2736H38ZM32.3587 25.6374C34.0132 25.6374 35.4681 26.1072 36.4824 26.8153C37.5001 27.5258 38 28.4105 38 29.2736H40C40 27.5763 39.0132 26.1429 37.6272 25.1754C36.2379 24.2055 34.3721 23.6374 32.3587 23.6374V25.6374ZM21.7709 16.3824C21.7709 18.432 20.3846 19.718 18.8197 19.718V21.718C21.6192 21.718 23.7709 19.4018 23.7709 16.3824H21.7709ZM18.8197 19.718C17.2549 19.718 15.8685 18.432 15.8685 16.3824H13.8685C13.8685 19.4018 16.0202 21.718 18.8197 21.718V19.718ZM15.8685 16.3824C15.8685 15.3584 16.22 14.6136 16.723 14.1244C17.2322 13.6292 17.961 13.3335 18.8197 13.3335V11.3335C17.4962 11.3335 16.2494 11.7951 15.3286 12.6907C14.4016 13.5923 13.8685 14.872 13.8685 16.3824H15.8685ZM18.8197 13.3335C19.6784 13.3335 20.4072 13.6292 20.9164 14.1244C21.4194 14.6136 21.7709 15.3584 21.7709 16.3824H23.7709C23.7709 14.872 23.2378 13.5923 22.3108 12.6907C21.39 11.7951 20.1432 11.3335 18.8197 11.3335V13.3335ZM28.1171 30.9466C28.1171 31.7807 27.6579 32.6659 26.2545 33.3976C24.8179 34.1466 22.4861 34.6668 19.0586 34.6668V36.6668C22.6415 36.6668 25.339 36.1304 27.1791 35.171C29.0523 34.1944 30.1171 32.7194 30.1171 30.9466H28.1171ZM19.0586 34.6668C15.631 34.6668 13.2992 34.1466 11.8627 33.3976C10.4592 32.6659 10 31.7807 10 30.9466H8C8 32.7194 9.06482 34.1944 10.938 35.171C12.7781 36.1304 15.4756 36.6668 19.0586 36.6668V34.6668ZM10 30.9466C10 30.2595 10.6317 29.3303 12.3709 28.5142C14.0307 27.7353 16.3941 27.2264 19.0586 27.2264V25.2264C16.1678 25.2264 13.5019 25.7742 11.5213 26.7036C9.61996 27.5959 8 29.0268 8 30.9466H10ZM19.0586 27.2264C21.723 27.2264 24.0864 27.7353 25.7462 28.5142C27.4854 29.3303 28.1171 30.2595 28.1171 30.9466H30.1171C30.1171 29.0268 28.4972 27.5959 26.5959 26.7036C24.6152 25.7742 21.9493 25.2264 19.0586 25.2264V27.2264Z" fill="white"/>
<path d="M40.0767 16L40.0767 22.6667" stroke="white" stroke-width="2" stroke-linecap="round"/>
<path d="M43.1538 19.333L37 19.333" stroke="white" stroke-width="2" stroke-linecap="round"/>
</g>
<defs>
<clipPath id="clip0_131_3388">
<rect width="48" height="48" fill="white"/>
</clipPath>
</defs>
</svg>
