<svg width="48" height="48" viewBox="0 0 48 48" fill="none" xmlns="http://www.w3.org/2000/svg">
<g clip-path="url(#clip0_131_3374)">
<rect x="0.5" y="0.5" width="47" height="47" rx="7.5" fill="#EFAECD" stroke="#BB648D"/>
<path d="M34.2572 32.7638C33.7125 32.8552 33.3451 33.371 33.4366 33.9156C33.5281 34.4603 34.0438 34.8276 34.5885 34.7361L34.2572 32.7638ZM32.3587 23.6372C31.8064 23.6372 31.3587 24.0849 31.3587 24.6372C31.3587 25.1895 31.8064 25.6372 32.3587 25.6372V23.6372ZM30.8206 20.471C32.9124 20.471 34.6076 18.7749 34.6076 16.6832H32.6076C32.6076 17.6709 31.8073 18.471 30.8206 18.471V20.471ZM27.0336 16.6832C27.0336 18.7749 28.7289 20.471 30.8206 20.471V18.471C29.834 18.471 29.0336 17.6709 29.0336 16.6832H27.0336ZM30.8206 12.8955C28.7289 12.8955 27.0336 14.5916 27.0336 16.6832H29.0336C29.0336 15.6956 29.834 14.8955 30.8206 14.8955V12.8955ZM34.6076 16.6832C34.6076 14.5916 32.9124 12.8955 30.8206 12.8955V14.8955C31.8073 14.8955 32.6076 15.6956 32.6076 16.6832H34.6076ZM38 29.2734C38 30.1139 37.7293 30.8447 37.176 31.4252C36.6138 32.0151 35.6878 32.5234 34.2572 32.7638L34.5885 34.7361C36.327 34.4441 37.6897 33.785 38.6237 32.8051C39.5667 31.8158 40 30.5745 40 29.2734H38ZM32.3587 25.6372C34.0132 25.6372 35.4681 26.107 36.4824 26.8151C37.5001 27.5255 38 28.4103 38 29.2734H40C40 27.576 39.0132 26.1427 37.6272 25.1751C36.2379 24.2053 34.3721 23.6372 32.3587 23.6372V25.6372ZM21.7709 16.3822C21.7709 18.4317 20.3846 19.7177 18.8197 19.7177V21.7177C21.6192 21.7177 23.7709 19.4016 23.7709 16.3822H21.7709ZM18.8197 19.7177C17.2549 19.7177 15.8685 18.4317 15.8685 16.3822H13.8685C13.8685 19.4016 16.0202 21.7177 18.8197 21.7177V19.7177ZM15.8685 16.3822C15.8685 15.3582 16.22 14.6134 16.723 14.1242C17.2322 13.6289 17.961 13.3333 18.8197 13.3333V11.3333C17.4962 11.3333 16.2494 11.7948 15.3286 12.6904C14.4016 13.592 13.8685 14.8717 13.8685 16.3822H15.8685ZM18.8197 13.3333C19.6784 13.3333 20.4072 13.6289 20.9164 14.1242C21.4194 14.6134 21.7709 15.3582 21.7709 16.3822H23.7709C23.7709 14.8717 23.2378 13.592 22.3108 12.6904C21.39 11.7948 20.1432 11.3333 18.8197 11.3333V13.3333ZM28.1171 30.9464C28.1171 31.7804 27.6579 32.6656 26.2545 33.3974C24.8179 34.1463 22.4861 34.6666 19.0586 34.6666V36.6666C22.6415 36.6666 25.339 36.1302 27.1791 35.1708C29.0523 34.1941 30.1171 32.7192 30.1171 30.9464H28.1171ZM19.0586 34.6666C15.631 34.6666 13.2992 34.1463 11.8627 33.3974C10.4592 32.6656 10 31.7804 10 30.9464H8C8 32.7192 9.06482 34.1941 10.938 35.1708C12.7781 36.1302 15.4756 36.6666 19.0586 36.6666V34.6666ZM10 30.9464C10 30.2593 10.6317 29.3301 12.3709 28.514C14.0307 27.735 16.3941 27.2262 19.0586 27.2262V25.2262C16.1678 25.2262 13.5019 25.7739 11.5213 26.7034C9.61996 27.5956 8 29.0266 8 30.9464H10ZM19.0586 27.2262C21.723 27.2262 24.0864 27.735 25.7462 28.514C27.4854 29.3301 28.1171 30.2593 28.1171 30.9464H30.1171C30.1171 29.0266 28.4972 27.5956 26.5959 26.7034C24.6152 25.7739 21.9493 25.2262 19.0586 25.2262V27.2262Z" fill="white"/>
<path d="M8.07666 16L8.07666 22.6667" stroke="white" stroke-width="2" stroke-linecap="round"/>
<path d="M11.1538 19.3333L4.99996 19.3333" stroke="white" stroke-width="2" stroke-linecap="round"/>
</g>
<defs>
<clipPath id="clip0_131_3374">
<rect width="48" height="48" fill="white"/>
</clipPath>
</defs>
</svg>
