<svg width="48" height="48" viewBox="0 0 48 48" fill="none" xmlns="http://www.w3.org/2000/svg">
<g clip-path="url(#clip0_155_1252)">
<rect x="0.5" y="0.5" width="47" height="47" rx="7.5" fill="#EAD3F2" stroke="#7E518E"/>
<path d="M15.9873 29.2308L16.6796 29.5192L15.9873 29.2308ZM15.154 31.2308L15.8463 31.5192L15.154 31.2308ZM32.8463 31.2308L32.154 31.5192L32.8463 31.2308ZM32.0129 29.2308L32.7053 28.9423V28.9423L32.0129 29.2308ZM28.0001 27.25C27.5859 27.25 27.2501 27.5858 27.2501 28C27.2501 28.4142 27.5859 28.75 28.0001 28.75V27.25ZM20.0001 28.75C20.4143 28.75 20.7501 28.4142 20.7501 28C20.7501 27.5858 20.4143 27.25 20.0001 27.25V28.75ZM30.2501 21.1111C30.2501 22.8311 29.2713 24.8886 27.9049 26.5523C27.2309 27.373 26.49 28.0632 25.7814 28.5419C25.0567 29.0316 24.4406 29.25 24.0001 29.25V30.75C24.8722 30.75 25.7873 30.3483 26.6212 29.7849C27.4712 29.2106 28.3162 28.4149 29.0641 27.5043C30.5415 25.7054 31.7501 23.3185 31.7501 21.1111H30.2501ZM24.0001 29.25C23.5597 29.25 22.9435 29.0316 22.2188 28.5419C21.5102 28.0632 20.7693 27.373 20.0953 26.5523C18.729 24.8886 17.7501 22.8311 17.7501 21.1111H16.2501C16.2501 23.3185 17.4588 25.7054 18.9362 27.5043C19.684 28.4149 20.5291 29.2106 21.3791 29.7849C22.213 30.3483 23.1281 30.75 24.0001 30.75V29.25ZM17.7501 21.1111C17.7501 17.5868 20.5594 14.75 24.0001 14.75V13.25C19.7088 13.25 16.2501 16.7807 16.2501 21.1111H17.7501ZM24.0001 14.75C27.4408 14.75 30.2501 17.5868 30.2501 21.1111H31.7501C31.7501 16.7807 28.2914 13.25 24.0001 13.25V14.75ZM25.7501 21C25.7501 21.9665 24.9666 22.75 24.0001 22.75V24.25C25.7951 24.25 27.2501 22.7949 27.2501 21H25.7501ZM24.0001 22.75C23.0336 22.75 22.2501 21.9665 22.2501 21H20.7501C20.7501 22.7949 22.2052 24.25 24.0001 24.25V22.75ZM22.2501 21C22.2501 20.0335 23.0336 19.25 24.0001 19.25V17.75C22.2052 17.75 20.7501 19.2051 20.7501 21H22.2501ZM24.0001 19.25C24.9666 19.25 25.7501 20.0335 25.7501 21H27.2501C27.2501 19.2051 25.7951 17.75 24.0001 17.75V19.25ZM15.295 28.9423L14.4617 30.9423L15.8463 31.5192L16.6796 29.5192L15.295 28.9423ZM17.0001 34.75H31.0001V33.25H17.0001V34.75ZM33.5386 30.9423L32.7053 28.9423L31.3206 29.5192L32.154 31.5192L33.5386 30.9423ZM30.1668 27.25H28.0001V28.75H30.1668V27.25ZM17.8335 28.75H20.0001V27.25H17.8335V28.75ZM32.7053 28.9423C32.2783 27.9175 31.277 27.25 30.1668 27.25V28.75C30.6714 28.75 31.1266 29.0534 31.3206 29.5192L32.7053 28.9423ZM31.0001 34.75C32.9625 34.75 34.2933 32.7537 33.5386 30.9423L32.154 31.5192C32.497 32.3426 31.8921 33.25 31.0001 33.25V34.75ZM14.4617 30.9423C13.7069 32.7537 15.0378 34.75 17.0001 34.75V33.25C16.1082 33.25 15.5032 32.3426 15.8463 31.5192L14.4617 30.9423ZM16.6796 29.5192C16.8737 29.0534 17.3288 28.75 17.8335 28.75V27.25C16.7233 27.25 15.722 27.9175 15.295 28.9423L16.6796 29.5192Z" fill="white"/>
</g>
<defs>
<clipPath id="clip0_155_1252">
<rect width="48" height="48" fill="white"/>
</clipPath>
</defs>
</svg>
