<svg width="72" height="18" viewBox="0 0 72 18" fill="none" xmlns="http://www.w3.org/2000/svg">
<path d="M8.95164 2.6C10.6983 2.6 11.945 3.04 12.6916 3.92C13.2383 4.58667 13.5116 5.42 13.5116 6.42C13.5116 6.78 13.4783 7.16 13.4116 7.56L12.6316 12.02C12.365 13.5267 11.7116 14.7333 10.6716 15.64C9.63164 16.5467 8.28497 17 6.63164 17H0.811641L3.35164 2.6H8.95164ZM7.69164 5.72H6.39164L4.97164 13.88H6.87164C7.49831 13.88 7.98497 13.7133 8.33164 13.38C8.69164 13.0333 8.93831 12.4733 9.07164 11.7L9.65164 8.42C9.70497 8.12667 9.73164 7.86 9.73164 7.62C9.73164 6.35333 9.05164 5.72 7.69164 5.72ZM18.2905 17.28C15.5172 17.28 14.1305 16.32 14.1305 14.4C14.1305 14.1333 14.1572 13.8467 14.2105 13.54L14.6305 11.06C14.8572 9.78 15.4439 8.8 16.3905 8.12C17.3505 7.42667 18.6172 7.08 20.1905 7.08C22.8705 7.08 24.2105 8.09333 24.2105 10.12C24.2105 10.4133 24.1839 10.7333 24.1305 11.08L23.8905 12.5H17.7905L17.7105 12.96C17.6839 13.12 17.6705 13.2667 17.6705 13.4C17.6705 14.1333 18.1039 14.5 18.9705 14.5C19.2905 14.5 19.5639 14.4 19.7905 14.2C20.0172 14 20.1505 13.7667 20.1905 13.5L23.5105 13.54C23.0705 16.0333 21.3305 17.28 18.2905 17.28ZM20.6905 11.28C20.7439 11.0533 20.7705 10.8467 20.7705 10.66C20.7705 10.46 20.6839 10.26 20.5105 10.06C20.3372 9.86 20.0572 9.76 19.6705 9.76C19.2972 9.76 18.9505 9.88667 18.6305 10.14C18.3239 10.3933 18.1105 10.7733 17.9905 11.28H20.6905ZM29.3257 17.28C26.5524 17.28 25.1657 16.32 25.1657 14.4C25.1657 14.1333 25.1924 13.8467 25.2457 13.54L25.6657 11.06C25.879 9.78 26.459 8.8 27.4057 8.12C28.3657 7.44 29.579 7.09333 31.0457 7.08C33.8857 7.08 35.3057 8.06667 35.3057 10.04C35.3057 10.4667 35.2524 10.8533 35.1457 11.2C35.0524 11.5333 34.9524 11.76 34.8457 11.88L34.6857 12.08H31.2857C31.619 11.7867 31.7857 11.44 31.7857 11.04C31.7857 10.32 31.4257 9.96 30.7057 9.96C30.279 9.96 29.9124 10.0867 29.6057 10.34C29.299 10.5933 29.099 10.98 29.0057 11.5L28.7457 12.96C28.719 13.0933 28.7057 13.22 28.7057 13.34C28.7057 14.0467 29.1457 14.4 30.0257 14.4C30.319 14.4 30.579 14.3067 30.8057 14.12C31.0457 13.9333 31.1857 13.7267 31.2257 13.5L34.5457 13.54C34.1057 16.0333 32.3657 17.28 29.3257 17.28ZM40.5018 14.44C40.8085 14.44 41.0818 14.3733 41.3218 14.24L41.2218 16.5C40.5951 17.02 39.8818 17.28 39.0818 17.28C37.8685 17.28 37.0818 17 36.7218 16.44C36.4818 16.0667 36.3618 15.6733 36.3618 15.26C36.3618 14.8333 36.3885 14.46 36.4418 14.14L37.6418 7.38H41.0418L39.9218 13.68C39.9085 13.76 39.9018 13.8333 39.9018 13.9C39.9018 14.26 40.1018 14.44 40.5018 14.44ZM38.0418 4.12C38.0418 3.26667 38.2285 2.64667 38.6018 2.26C38.9885 1.86 39.5818 1.66 40.3818 1.66C41.5018 1.66 42.0618 2.15333 42.0618 3.14C42.0618 3.98 41.8685 4.59333 41.4818 4.98C41.1085 5.36667 40.5151 5.56 39.7018 5.56C38.5951 5.56 38.0418 5.08 38.0418 4.12ZM51.9313 13.92C51.9313 14.2667 52.1047 14.44 52.4513 14.44C52.8113 14.44 53.1113 14.3733 53.3513 14.24L53.2513 16.5C52.6113 17.02 51.8913 17.28 51.0913 17.28C49.6247 17.28 48.8113 16.7467 48.6513 15.68C47.9847 16.7467 47.0047 17.28 45.7113 17.28C43.5247 17.28 42.4313 16.34 42.4313 14.46C42.4313 14.14 42.4647 13.7867 42.5313 13.4L42.9513 11.06C43.1647 9.86 43.6513 8.90667 44.4113 8.2C45.1847 7.48 46.2513 7.12 47.6113 7.12C48.4513 7.12 49.118 7.3 49.6113 7.66L50.6313 1.82H54.0513L51.9513 13.68C51.938 13.76 51.9313 13.84 51.9313 13.92ZM46.0113 12.96C45.9847 13.08 45.9713 13.2467 45.9713 13.46C45.9713 13.6733 46.0713 13.8867 46.2713 14.1C46.4713 14.3 46.8047 14.4 47.2713 14.4C47.7513 14.4 48.1647 14.2133 48.5113 13.84L49.1113 10.48C48.9647 10.1467 48.618 9.98 48.0713 9.98C47.0447 9.98 46.4447 10.4733 46.2713 11.46L46.0113 12.96ZM59.0132 17.28C56.2399 17.28 54.8532 16.32 54.8532 14.4C54.8532 14.1333 54.8799 13.8467 54.9332 13.54L55.3532 11.06C55.5799 9.78 56.1665 8.8 57.1132 8.12C58.0732 7.42667 59.3399 7.08 60.9132 7.08C63.5932 7.08 64.9332 8.09333 64.9332 10.12C64.9332 10.4133 64.9065 10.7333 64.8532 11.08L64.6132 12.5H58.5132L58.4332 12.96C58.4065 13.12 58.3932 13.2667 58.3932 13.4C58.3932 14.1333 58.8265 14.5 59.6932 14.5C60.0132 14.5 60.2865 14.4 60.5132 14.2C60.7399 14 60.8732 13.7667 60.9132 13.5L64.2332 13.54C63.7932 16.0333 62.0532 17.28 59.0132 17.28ZM61.4132 11.28C61.4665 11.0533 61.4932 10.8467 61.4932 10.66C61.4932 10.46 61.4065 10.26 61.2332 10.06C61.0599 9.86 60.7799 9.76 60.3932 9.76C60.0199 9.76 59.6732 9.88667 59.3532 10.14C59.0465 10.3933 58.8332 10.7733 58.7132 11.28H61.4132Z" fill="#333333"/>
<circle cx="69" cy="14" r="3" fill="#333333"/>
</svg>
