<svg width="48" height="48" viewBox="0 0 48 48" fill="none" xmlns="http://www.w3.org/2000/svg">
<g clip-path="url(#clip0_131_3366)">
<rect x="0.5" y="0.5" width="47" height="47" rx="7.5" fill="#E1CDF4" stroke="#836AAD"/>
<path d="M28.0909 17.3462C28.0909 19.542 26.2322 21.4999 24 21.4999C21.7678 21.4999 19.9091 19.542 19.9091 17.3462C19.9091 15.1026 21.8131 13 24 13C26.1869 13 28.0909 15.1026 28.0909 17.3462ZM35 30.3705C35 31.4556 34.3939 32.5682 32.6742 33.4645C30.9214 34.3781 28.1042 35.0002 24 35.0002C19.8958 35.0002 17.0786 34.3781 15.3259 33.4645C13.6061 32.5682 13 31.4556 13 30.3705C13 29.4324 13.8488 28.2758 15.9394 27.295C17.9506 26.3515 20.7994 25.7408 24 25.7408C27.2006 25.7408 30.0494 26.3515 32.0606 27.295C34.1512 28.2758 35 29.4324 35 30.3705Z" stroke="white" stroke-width="2"/>
</g>
<defs>
<clipPath id="clip0_131_3366">
<rect width="48" height="48" fill="white"/>
</clipPath>
</defs>
</svg>
